<?xml version="1.0" standalone="no"?>
<!DOCTYPE svg PUBLIC "-//W3C//DTD SVG 20010904//EN"
 "http://www.w3.org/TR/2001/REC-SVG-20010904/DTD/svg10.dtd">
<svg version="1.0" xmlns="http://www.w3.org/2000/svg"
 width="1536.000000pt" height="1536.000000pt" viewBox="0 0 1536.000000 1536.000000"
 preserveAspectRatio="xMidYMid meet">
<metadata>
Created by potrace 1.14, written by Peter Selinger 2001-2017
</metadata>
<g transform="translate(0.000000,1536.000000) scale(0.100000,-0.100000)"
fill="#000000" stroke="none">
<path d="M2539 15356 c-2 -2 -38 -6 -80 -10 -62 -5 -223 -30 -341 -52 -15 -3
-66 -16 -115 -30 -106 -30 -104 -30 -123 -36 -8 -3 -37 -13 -65 -23 -27 -9
-59 -20 -70 -25 -11 -5 -65 -28 -120 -51 -297 -127 -570 -314 -821 -564 -186
-185 -312 -346 -437 -557 -49 -83 -138 -264 -168 -343 -11 -27 -24 -59 -29
-70 -18 -40 -79 -242 -99 -330 -20 -87 -24 -110 -37 -184 -32 -191 -32 -156
-30 -5426 1 -2860 5 -5216 9 -5235 4 -19 12 -69 18 -110 53 -368 206 -770 413
-1080 53 -80 151 -212 200 -270 63 -74 305 -309 376 -365 313 -249 684 -430
1065 -520 138 -33 171 -38 355 -62 81 -10 10333 -11 10450 -1 47 4 96 10 110
12 14 2 59 10 100 16 41 7 120 23 175 37 55 14 107 26 115 28 47 10 195 62
288 101 199 83 466 236 597 341 6 5 22 18 37 29 111 86 305 272 400 384 268
316 464 695 563 1090 18 74 36 151 39 170 3 19 8 47 11 62 8 41 13 83 22 173
10 100 11 10312 1 10415 -33 349 -120 662 -264 955 -152 310 -296 510 -539
750 -125 125 -146 143 -270 236 -373 283 -844 475 -1281 525 -27 3 -60 8 -74
12 -26 7 -10373 15 -10381 8z"/>
</g>
</svg>
